<svg width="41" height="42" viewBox="0 0 41 42" fill="none" xmlns="http://www.w3.org/2000/svg">
<ellipse cx="20.5" cy="21" rx="20.5" ry="21" fill="#F5F7FF"/>
<g clip-path="url(#clip0_587_7824)">
<path d="M26.4921 9H25.8898L22.8016 12.2314H14.5079C12.7811 12.234 11.1258 12.9525 9.90556 14.2292C8.68535 15.5058 8 17.2362 8 19.0405V26.2056C8.00247 28.0076 8.68907 29.7351 9.90915 31.0088C11.1292 32.2826 12.7831 32.9987 14.5079 33H15.1149L18.2077 29.7711H26.4921C28.2171 29.7704 29.8713 29.0545 31.0915 27.7806C32.3118 26.5067 32.9982 24.7789 33 22.9767V15.7993C32.9988 13.9964 32.3127 12.2677 31.0925 10.9929C29.8723 9.71806 28.2177 9.00129 26.4921 9ZM14.5079 15.5969H19.5756L22.6685 12.3655H26.4921C27.3635 12.3662 28.1991 12.7281 28.8154 13.372C29.4316 14.0158 29.7781 14.8888 29.7787 15.7993V19.0112C27.5028 18.4576 23.5905 18.1137 20.3436 20.8134C16.6578 23.879 12.9113 20.95 11.2213 19.2453V19.0405C11.2204 18.5888 11.3047 18.1413 11.4694 17.7237C11.6341 17.3062 11.8761 16.9266 12.1813 16.6068C12.4866 16.287 12.8492 16.0331 13.2484 15.8598C13.6476 15.6866 14.0756 15.5972 14.5079 15.5969ZM26.4921 26.3934H21.4314L18.3362 29.6247H14.5079C13.6371 29.6247 12.8018 29.2636 12.1856 28.6207C11.5693 27.9778 11.2225 27.1057 11.2213 26.1958V22.6815C12.5495 23.3928 14.017 23.7742 15.5093 23.7961C17.1877 23.7961 19.0784 22.145 20.9809 20.5623C23.9664 18.0796 27.7689 20.5305 29.7787 22.2084V22.9645C29.7775 23.8743 29.4307 24.7465 28.8145 25.3893C28.1982 26.0322 27.3629 26.3934 26.4921 26.3934Z" fill="#0029FF"/>
</g>
<defs>
<clipPath id="clip0_587_7824">
<rect width="25" height="24" fill="white" transform="translate(8 9)"/>
</clipPath>
</defs>
</svg>
