<svg width="115" height="29" viewBox="0 0 115 29" fill="none" xmlns="http://www.w3.org/2000/svg">
<g clip-path="url(#clip0_231_108)">
<path d="M22.7648 11.1245C25.6772 11.1245 28.0382 8.75986 28.0382 5.84288C28.0382 2.9259 25.6772 0.561218 22.7648 0.561218C19.8524 0.561218 17.4915 2.9259 17.4915 5.84288C17.4915 8.75986 19.8524 11.1245 22.7648 11.1245Z" fill="#00D9AC"/>
<path d="M6.51078 27.4041C9.42318 27.4041 11.7841 25.0394 11.7841 22.1224C11.7841 19.2054 9.42318 16.8408 6.51078 16.8408C3.59839 16.8408 1.23743 19.2054 1.23743 22.1224C1.23743 25.0394 3.59839 27.4041 6.51078 27.4041Z" fill="#00D9AC"/>
<path d="M27.9607 18.4652C27.1553 17.145 25.9297 16.1347 24.4812 15.597C23.0328 15.0594 21.4458 15.0256 19.9758 15.5011C18.6639 15.9201 16.8769 15.6718 15.8956 14.6941L14.8367 13.6284C13.7676 12.5576 13.0445 10.4367 13.499 8.97272C13.9512 7.51626 13.91 5.95093 13.3817 4.52039C12.8534 3.08984 11.8678 1.87436 10.5782 1.06315C9.28857 0.251937 7.76736 -0.10949 6.25137 0.0351313C4.73537 0.179752 3.30964 0.822306 2.19612 1.86277C1.0826 2.90323 0.343763 4.28323 0.0946225 5.78793C-0.154518 7.29263 0.100016 8.83762 0.818604 10.1824C1.53719 11.5272 2.67951 12.5963 4.06775 13.2233C5.45598 13.8503 7.01224 14 8.49426 13.6491C9.43226 13.4065 10.4169 13.4099 11.3532 13.659C12.2895 13.9082 13.1459 14.3947 13.8399 15.0717L13.9071 15.139C14.584 15.8358 15.0714 16.6947 15.3228 17.6338C15.5742 18.5729 15.5811 19.5609 15.3429 20.5034C15.0664 21.6469 15.0884 22.8424 15.4068 23.9749C15.7252 25.1074 16.3293 26.1388 17.161 26.9697C17.9158 27.7253 18.8348 28.296 19.8462 28.6372C20.8576 28.9784 21.9341 29.0808 22.9915 28.9366C24.049 28.7924 25.0589 28.4054 25.9424 27.8057C26.8259 27.2061 27.559 26.4101 28.0847 25.4799C28.6958 24.4075 29.0068 23.19 28.985 21.9555C28.9632 20.721 28.6093 19.5152 27.9607 18.4652Z" fill="#3C49D5"/>
<path d="M43.2746 5.54286V11.4556H51.6004V15.263H43.2746V22.8311H54.6993V26.8092H38.8018V1.55963H54.8904V5.54286H43.2746Z" fill="#303C6D"/>
<path d="M70.0752 26.8092L65.3441 20.7929L61.0934 26.8092H56.0009L63.0716 17.3632L56.569 8.35181H61.5066L65.3958 13.9852L69.7395 8.35181H74.6461L67.5651 17.3632L75.3124 26.8092H70.0752Z" fill="#303C6D"/>
<path d="M89.1853 26.8092L84.4543 20.7929L80.2035 26.8092H75.111L82.1817 17.3632L75.6791 8.35181H80.6167L84.5059 13.9852L88.8496 8.35181H93.7562L86.6752 17.3632L94.4225 26.8092H89.1853Z" fill="#303C6D"/>
<path d="M106.73 4.73068C106.034 4.46959 105.303 4.31271 104.561 4.26511C104.16 4.26511 103.765 4.3586 103.406 4.53817C103.048 4.71775 102.736 4.97848 102.495 5.29971C101.915 6.03395 101.613 6.95029 101.643 7.88623C101.643 8.03452 101.643 8.18454 101.643 8.33628H105.465V11.8798H101.71V26.8092H97.4078V11.8798H94.7375V8.3518H97.4388C97.4348 6.34352 98.1452 4.3995 99.4428 2.86839C100.047 2.19106 100.792 1.65471 101.625 1.29719C102.459 0.939658 103.361 0.769659 104.267 0.799179C105.539 0.841375 106.799 1.06789 108.006 1.47167L106.73 4.73068Z" fill="#303C6D"/>
<path d="M110.284 26.8092V11.8798H107.929V8.35181H114.643V26.8092H110.284Z" fill="#303C6D"/>
<path d="M112.505 1.19754C112.833 1.19205 113.159 1.25446 113.462 1.38085C113.765 1.50725 114.039 1.69491 114.266 1.93211C114.503 2.15979 114.69 2.43398 114.816 2.7375C114.943 3.04103 115.005 3.36737 114.999 3.69611C115.005 4.02563 114.943 4.35278 114.817 4.65715C114.69 4.96153 114.503 5.23662 114.266 5.46529C113.798 5.93249 113.163 6.1948 112.502 6.1948C111.841 6.1948 111.207 5.93249 110.738 5.46529C110.506 5.2343 110.323 4.95831 110.2 4.65415C110.078 4.34999 110.018 4.02402 110.026 3.69611C110.02 3.36787 110.082 3.04203 110.208 2.73866C110.333 2.43529 110.519 2.1608 110.754 1.93211C110.981 1.69718 111.253 1.51091 111.554 1.38463C111.855 1.25835 112.178 1.1947 112.505 1.19754Z" fill="#00D9AC"/>
</g>
<defs>
<clipPath id="clip0_231_108">
<rect width="115" height="29" fill="white"/>
</clipPath>
</defs>
</svg>
