<svg width="48" height="48" viewBox="0 0 48 48" fill="none" xmlns="http://www.w3.org/2000/svg">
<path d="M24 48C37.2548 48 48 37.2548 48 24C48 10.7452 37.2548 0 24 0C10.7452 0 0 10.7452 0 24C0 37.2548 10.7452 48 24 48Z" fill="#EEF4F7"/>
<path fill-rule="evenodd" clip-rule="evenodd" d="M10.8638 23.7466L24.8601 17.7178C31.5252 14.9456 32.9101 14.4641 33.8128 14.4482C34.0114 14.4447 34.4553 14.4939 34.7428 14.7272C34.9857 14.9242 35.0524 15.1904 35.0844 15.3771C35.1164 15.5638 35.1562 15.9894 35.1245 16.3219C34.7633 20.1168 33.2005 29.3263 32.4054 33.5767C32.069 35.3752 31.407 35.9783 30.7653 36.0373C29.3715 36.1655 28.3132 35.1161 26.9633 34.2313L21.6073 30.6336C19.2377 29.0721 20.7738 28.2139 22.1242 26.8113C22.4776 26.4441 28.6184 20.8587 28.7372 20.352C28.7516 20.2886 28.7658 20.0525 28.6255 19.9277C28.4852 19.8029 28.278 19.8461 28.1286 19.8795C27.9168 19.9276 24.5423 22.158 18.0053 26.5707C17.0474 27.2284 16.1798 27.5489 15.4026 27.5321C14.5456 27.5136 12.8973 27.0476 11.6719 26.6493C10.1689 26.1607 8.97428 25.9024 9.07834 25.0727C9.13248 24.6405 9.72764 24.1986 10.8637 23.7467L10.8638 23.7466Z" fill="#26A4E3"/>
</svg>
