<svg width="40" height="40" viewBox="0 0 40 40" fill="none" xmlns="http://www.w3.org/2000/svg">
<path d="M20.4996 19V15.5M20.4996 22.5H20.5096M20.4996 28C25.194 28 28.9996 24.1944 28.9996 19.5C28.9996 14.8056 25.194 11 20.4996 11C15.8052 11 11.9996 14.8056 11.9996 19.5C11.9996 20.45 12.1555 21.3636 12.443 22.2166C12.5512 22.5376 12.6053 22.6981 12.6151 22.8214C12.6247 22.9432 12.6174 23.0286 12.5873 23.1469C12.5568 23.2668 12.4894 23.3915 12.3547 23.6408L10.7191 26.6684C10.4857 27.1002 10.3691 27.3161 10.3952 27.4828C10.4179 27.6279 10.5034 27.7557 10.6288 27.8322C10.7728 27.9201 11.0169 27.8948 11.5052 27.8444L16.6262 27.315C16.7813 27.299 16.8588 27.291 16.9295 27.2937C16.999 27.2963 17.0481 27.3029 17.1159 27.3185C17.1848 27.3344 17.2714 27.3678 17.4448 27.4345C18.3928 27.7998 19.4228 28 20.4996 28Z" stroke="#9C9D9E" strokeWidth="2" strokeLinecap="round" strokeLinejoin="round"/>
</svg>
