<svg width="40" height="40" viewBox="0 0 40 40" fill="none" xmlns="http://www.w3.org/2000/svg">
<path d="M13 24.5L13.6432 25.2657L13.6444 25.2647L13 24.5ZM11 29.5L10.0088 29.3675C9.96753 29.6763 10.0726 29.9868 10.2929 30.2071C10.5132 30.4274 10.8237 30.5325 11.1325 30.4912L11 29.5ZM16 27.5L15.2363 26.8545L15.2343 26.8568L16 27.5ZM15.91 24.59L16.6126 23.8784C16.6086 23.8744 16.6045 23.8705 16.6004 23.8666L15.91 24.59ZM19.5 16.05L20.3422 16.5892L20.3478 16.5803L19.5 16.05ZM30.5 10H31.5C31.5 9.45014 31.0561 9.00343 30.5062 9.00002L30.5 10ZM12.5 20L11.5161 19.8214C11.4631 20.1131 11.5423 20.4133 11.7323 20.6409C11.9223 20.8685 12.2035 21 12.5 21V20ZM14.5 16L13.9453 15.168L13.944 15.1688L14.5 16ZM19.1956 16.9526C19.7217 17.1207 20.2845 16.8305 20.4526 16.3044C20.6207 15.7783 20.3304 15.2155 19.8044 15.0474L19.1956 16.9526ZM20.5 28H19.5C19.5 28.2965 19.6316 28.5777 19.8591 28.7677C20.0867 28.9577 20.3869 29.0369 20.6786 28.9839L20.5 28ZM24.5 26L25.3312 26.556L25.3321 26.5547L24.5 26ZM12.3568 23.7343C11.8297 24.1771 11.4427 24.7872 11.1561 25.3739C10.864 25.9721 10.6419 26.6176 10.4761 27.1975C10.3093 27.7805 10.1934 28.3183 10.1191 28.7094C10.0819 28.9057 10.0547 29.0667 10.0367 29.1803C10.0277 29.2371 10.021 29.2821 10.0164 29.3138C10.0141 29.3296 10.0123 29.3422 10.0111 29.3512C10.0104 29.3557 10.0099 29.3593 10.0096 29.362C10.0094 29.3634 10.0092 29.3645 10.0091 29.3654C10.009 29.3659 10.009 29.3663 10.0089 29.3666C10.0089 29.3668 10.0089 29.367 10.0089 29.3671C10.0088 29.3673 10.0088 29.3675 11 29.5C11.9912 29.6325 11.9912 29.6327 11.9911 29.6328C11.9911 29.6328 11.9911 29.633 11.9911 29.633C11.9911 29.6331 11.9911 29.6332 11.9911 29.6332C11.9911 29.6332 11.9911 29.633 11.9912 29.6325C11.9913 29.6317 11.9915 29.6299 11.9919 29.6273C11.9926 29.6221 11.9938 29.6135 11.9956 29.6016C11.999 29.5779 12.0045 29.5413 12.0121 29.4934C12.0273 29.3975 12.051 29.2565 12.084 29.0825C12.1504 28.733 12.2532 28.257 12.3989 27.7475C12.5456 27.2349 12.7298 26.7091 12.9532 26.2517C13.1823 25.7828 13.4203 25.453 13.6432 25.2657L12.3568 23.7343ZM11 29.5C11.1325 30.4912 11.1327 30.4912 11.1329 30.4911C11.133 30.4911 11.1332 30.4911 11.1334 30.4911C11.1337 30.491 11.1341 30.491 11.1346 30.4909C11.1355 30.4908 11.1366 30.4906 11.138 30.4904C11.1407 30.4901 11.1443 30.4896 11.1488 30.4889C11.1578 30.4877 11.1704 30.4859 11.1862 30.4836C11.2179 30.479 11.2629 30.4723 11.3197 30.4633C11.4333 30.4453 11.5943 30.4182 11.7906 30.3809C12.1817 30.3066 12.7195 30.1907 13.3025 30.0239C13.8824 29.8581 14.5279 29.636 15.1261 29.3439C15.7128 29.0573 16.3229 28.6703 16.7657 28.1432L15.2343 26.8568C15.0471 27.0797 14.7172 27.3177 14.2483 27.5468C13.7909 27.7702 13.2651 27.9544 12.7525 28.1011C12.243 28.2468 11.767 28.3496 11.4175 28.416C11.2435 28.449 11.1025 28.4727 11.0066 28.4879C10.9587 28.4955 10.9221 28.501 10.8984 28.5044C10.8865 28.5062 10.8779 28.5074 10.8727 28.5081C10.8701 28.5085 10.8683 28.5087 10.8675 28.5088C10.867 28.5089 10.8668 28.5089 10.8668 28.5089C10.8668 28.5089 10.8669 28.5089 10.867 28.5089C10.867 28.5089 10.8672 28.5089 10.8672 28.5089C10.8673 28.5088 10.8675 28.5088 11 29.5ZM16.7637 28.1455C17.7857 26.9364 17.8014 25.0522 16.6126 23.8784L15.2074 25.3016C15.5986 25.6878 15.6343 26.3836 15.2363 26.8545L16.7637 28.1455ZM16.6004 23.8666C16.0334 23.3254 15.2866 23.0127 14.5031 22.9885L14.4413 24.9876C14.732 24.9965 15.0092 25.1126 15.2196 25.3134L16.6004 23.8666ZM14.5031 22.9885C13.7197 22.9643 12.9549 23.2302 12.3556 23.7353L13.6444 25.2647C13.8668 25.0772 14.1506 24.9786 14.4413 24.9876L14.5031 22.9885ZM21.2071 22.2929L18.2071 19.2929L16.7929 20.7071L19.7929 23.7071L21.2071 22.2929ZM18.4331 20.3597C18.941 19.0418 19.5806 17.7786 20.3422 16.5892L18.6578 15.5108C17.8238 16.8135 17.1232 18.197 16.5669 19.6403L18.4331 20.3597ZM20.3478 16.5803C21.4226 14.8619 22.919 13.4471 24.6949 12.4703L23.7311 10.7179C21.6562 11.8591 19.9078 13.5121 18.6522 15.5197L20.3478 16.5803ZM24.6949 12.4703C26.4708 11.4936 28.4671 10.9874 30.4938 11L30.5062 9.00002C28.1383 8.98534 25.8059 9.5767 23.7311 10.7179L24.6949 12.4703ZM29.5 10C29.5 12.5238 28.7889 16.9203 23.9431 20.1694L25.0569 21.8306C30.6511 18.0797 31.5 12.9162 31.5 10H29.5ZM23.9655 20.1548C22.7589 20.9178 21.4789 21.5578 20.1445 22.0653L20.8555 23.9347C22.3148 23.3797 23.7148 22.6797 25.0345 21.8452L23.9655 20.1548ZM17.5 19H12.5V21H17.5V19ZM12.5 20C13.4839 20.1786 13.4839 20.1788 13.4839 20.179C13.4838 20.179 13.4838 20.1792 13.4838 20.1792C13.4838 20.1794 13.4838 20.1795 13.4837 20.1796C13.4837 20.1798 13.4837 20.1798 13.4837 20.1796C13.4838 20.1792 13.484 20.1781 13.4844 20.1763C13.485 20.1727 13.4862 20.1664 13.488 20.1575C13.4915 20.1397 13.4971 20.1115 13.5049 20.0743C13.5207 19.9996 13.5452 19.8891 13.5792 19.7522C13.6475 19.4769 13.7519 19.1028 13.8963 18.7047C14.2094 17.8417 14.6209 17.1222 15.056 16.8312L13.944 15.1688C12.9291 15.8478 12.3406 17.1283 12.0162 18.0228C11.8418 18.5034 11.7182 18.9475 11.638 19.2707C11.5977 19.433 11.568 19.5667 11.548 19.6616C11.538 19.7091 11.5304 19.7469 11.5251 19.774C11.5224 19.7875 11.5204 19.7983 11.5189 19.8063C11.5181 19.8102 11.5175 19.8135 11.5171 19.816C11.5168 19.8173 11.5166 19.8184 11.5165 19.8193C11.5164 19.8197 11.5163 19.8201 11.5162 19.8205C11.5162 19.8207 11.5162 19.8209 11.5162 19.821C11.5161 19.8212 11.5161 19.8214 12.5 20ZM15.0547 16.8321C15.2697 16.6887 15.6019 16.5824 16.0572 16.5401C16.5039 16.4986 16.9996 16.5249 17.4797 16.5868C17.9558 16.6482 18.3904 16.7409 18.7072 16.819C18.8646 16.8579 18.9908 16.8925 19.0758 16.9169C19.1183 16.9291 19.1504 16.9387 19.1708 16.9449C19.181 16.948 19.1882 16.9503 19.1924 16.9516C19.1945 16.9522 19.1959 16.9526 19.1964 16.9528C19.1967 16.9529 19.1968 16.9529 19.1966 16.9529C19.1966 16.9529 19.1964 16.9528 19.1963 16.9528C19.1962 16.9527 19.196 16.9527 19.196 16.9527C19.1958 16.9526 19.1956 16.9526 19.5 16C19.8044 15.0474 19.8042 15.0474 19.8039 15.0473C19.8038 15.0473 19.8036 15.0472 19.8034 15.0471C19.803 15.047 19.8026 15.0469 19.8021 15.0467C19.8012 15.0464 19.8 15.0461 19.7987 15.0456C19.796 15.0448 19.7924 15.0437 19.7881 15.0423C19.7794 15.0396 19.7675 15.0359 19.7525 15.0314C19.7226 15.0223 19.6805 15.0097 19.6274 14.9945C19.5212 14.964 19.3707 14.9228 19.186 14.8772C18.8183 14.7866 18.3067 14.6768 17.7353 14.6032C17.1679 14.5301 16.5148 14.4889 15.8721 14.5487C15.2381 14.6076 14.5403 14.7713 13.9453 15.168L15.0547 16.8321ZM19.5 23V28H21.5V23H19.5ZM20.5 28C20.6786 28.9839 20.6788 28.9839 20.679 28.9838C20.6791 28.9838 20.6793 28.9838 20.6795 28.9838C20.6799 28.9837 20.6803 28.9836 20.6807 28.9835C20.6816 28.9834 20.6827 28.9832 20.684 28.9829C20.6865 28.9825 20.6898 28.9819 20.6937 28.9811C20.7017 28.9796 20.7125 28.9776 20.726 28.9749C20.7531 28.9696 20.7909 28.962 20.8384 28.952C20.9333 28.932 21.067 28.9023 21.2293 28.862C21.5525 28.7818 21.9966 28.6582 22.4772 28.4838C23.3717 28.1594 24.6522 27.5709 25.3312 26.556L23.6688 25.444C23.3778 25.8791 22.6583 26.2906 21.7953 26.6037C21.3972 26.7481 21.0231 26.8525 20.7478 26.9208C20.611 26.9548 20.5004 26.9793 20.4257 26.9951C20.3885 27.0029 20.3603 27.0085 20.3425 27.012C20.3336 27.0138 20.3273 27.015 20.3237 27.0156C20.3219 27.016 20.3208 27.0162 20.3204 27.0163C20.3202 27.0163 20.3202 27.0163 20.3204 27.0163C20.3205 27.0163 20.3206 27.0162 20.3208 27.0162C20.3208 27.0162 20.321 27.0162 20.321 27.0161C20.3212 27.0161 20.3214 27.0161 20.5 28ZM25.3321 26.5547C25.7287 25.9597 25.8924 25.2619 25.9513 24.6279C26.0111 23.9852 25.9699 23.3321 25.8968 22.7647C25.8232 22.1933 25.7134 21.6817 25.6228 21.314C25.5773 21.1293 25.536 20.9788 25.5055 20.8726C25.4903 20.8195 25.4777 20.7774 25.4686 20.7475C25.4641 20.7325 25.4604 20.7206 25.4577 20.7119C25.4563 20.7076 25.4552 20.7041 25.4544 20.7013C25.4539 20.7 25.4536 20.6988 25.4533 20.6979C25.4531 20.6974 25.453 20.697 25.4529 20.6966C25.4528 20.6964 25.4527 20.6962 25.4527 20.6961C25.4526 20.6958 25.4526 20.6956 24.5 21C23.5474 21.3044 23.5474 21.3042 23.5473 21.304C23.5473 21.304 23.5473 21.3038 23.5472 21.3037C23.5472 21.3036 23.5471 21.3034 23.5471 21.3034C23.5471 21.3033 23.5471 21.3033 23.5472 21.3036C23.5474 21.3041 23.5478 21.3055 23.5484 21.3076C23.5497 21.3118 23.552 21.319 23.5551 21.3292C23.5613 21.3496 23.5709 21.3817 23.5831 21.4242C23.6075 21.5092 23.6421 21.6354 23.681 21.7928C23.7591 22.1096 23.8518 22.5442 23.9132 23.0203C23.9751 23.5005 24.0014 23.9961 23.9599 24.4428C23.9176 24.8981 23.8113 25.2303 23.6679 25.4453L25.3321 26.5547Z" fill="#000E48"/>
</svg>
